<svg id="Calque_1" data-name="Calque 1" xmlns="http://www.w3.org/2000/svg" viewBox="0 0 1869.31 707.29"><defs><style>.cls-1{fill:#2e3940;stroke:#cedef2;stroke-width:40px;}.cls-1,.cls-2{stroke-miterlimit:10;}.cls-2{fill:#e9eaf2;stroke:#000;}.cls-3{fill:#cedef2;}.cls-4{font-size:303px;fill:#ebebeb;font-family:Impact, Impact;}</style></defs><title>logoV2</title><rect class="cls-1" x="20" y="20" width="1793.99" height="667.29" rx="86.02" ry="86.02"/><path id="rect2991" class="cls-2" d="M309.68,321v51.08l-38.38-22.19-19.48,33.63L309.68,417v75.38l-65-37.55-.12-67.15-38.89.08.08,44.61-44.37-25.64-19.44,33.67L186.21,466,147.79,488.1l19.36,33.71,58-33.36,65.23,37.67-65,37.51-58.21-33.48-19.36,33.71,38.65,22.27-44.37,25.6,19.44,33.67,44.26-25.56-.08,44.33,38.89.08.12-66.87,65.23-37.63v75l-58.09,33.67,19.48,33.63,38.61-22.34V731H348.8V679.9l38.38,22.19,19.48-33.63L348.8,634.94V559.56l65,37.55.12,67.15,38.89-.08-.08-44.61,44.37,25.64,19.44-33.67L472.28,586l38.42-22.11-19.36-33.71L433.4,563.52l-65.27-37.67,65-37.55,58.17,33.52L510.7,488.1,472,465.83l44.37-25.6L497,406.56l-44.26,25.56.08-44.33-38.89-.08-.12,66.87-65.23,37.63v-75l58.09-33.67-19.48-33.63-38.61,22.34V321Z" transform="translate(-62.84 -259.58)"/><path class="cls-3" d="M329.24,751.74c-66,0-145.1,79.15-145.1,79.15S263.29,910,329.24,910s145.1-79.15,145.1-79.15S395.2,751.74,329.24,751.74Zm0,131.91A52.76,52.76,0,1,1,382,830.88,52.92,52.92,0,0,1,329.24,883.65Z" transform="translate(-62.84 -259.58)"/><circle class="cls-3" cx="266.4" cy="571.3" r="26.38"/><text class="cls-4" transform="translate(556.6 472.67)">SnowEye</text></svg>