<svg xmlns="http://www.w3.org/2000/svg" viewBox="0 0 609.24 810.79"><defs><style>.cls-1{fill:#2e3940;stroke:#cedef2;stroke-width:40px;}.cls-1,.cls-2{stroke-miterlimit:10;}.cls-2{fill:#e9eaf2;stroke:#000;}.cls-3{fill:#cedef2;}</style></defs><title>Fichier 1</title><g id="Calque_2" data-name="Calque 2"><g id="Calque_1-2" data-name="Calque 1"><rect class="cls-1" x="20" y="20" width="569.24" height="770.79" rx="86.02" ry="86.02"/><path id="rect2991" class="cls-2" d="M282,67.83v59L237.7,101.2l-22.5,38.85L282,178.77v87.07L207,222.46l-.14-77.56L161.9,145l.09,51.53L110.73,166.9,88.27,205.8l51.12,29.52L95,260.86l22.37,38.94,67-38.53,75.35,43.51-75.07,43.33-67.24-38.67L95,348.38l44.65,25.72L88.41,403.67l22.46,38.9L162,413l-.09,51.21,44.92.09L207,387.1l75.35-43.47v86.66l-67.1,38.9L237.7,508l44.6-25.81v59.18h44.92v-59L371.54,508,394,469.19l-66.83-38.71V343.4l75.07,43.38.14,77.56,44.92-.09-.09-51.53,51.26,29.61L521,403.44l-51.12-29.52,44.37-25.54-22.37-38.94L424.93,348l-75.39-43.51,75.12-43.38,67.19,38.71,22.37-38.94-44.65-25.72,51.26-29.57-22.46-38.9L447.25,196.2l.09-51.21-44.92-.09-.14,77.25-75.35,43.47V178.95l67.1-38.9-22.5-38.85L326.94,127V67.83Z"/><path class="cls-3" d="M304.62,565.39c-76.19,0-167.61,91.42-167.61,91.42s91.42,91.42,167.61,91.42,167.61-91.42,167.61-91.42S380.81,565.39,304.62,565.39Zm0,152.37a60.95,60.95,0,1,1,60.95-60.95A61.13,61.13,0,0,1,304.62,717.76Z"/><circle class="cls-3" cx="304.62" cy="656.81" r="30.47"/></g></g></svg>